<svg xmlns="http://www.w3.org/2000/svg" width="48" height="48" viewBox="0 0 48 48" role="img" aria-labelledby="title desc">
  <title id="title">OpenClaw</title>
  <desc id="desc">OpenClaw mark for TypeUI integration listings.</desc>
  <rect width="48" height="48" rx="12" fill="#FF5A36"/>
  <path fill="#fff" d="M24 12c-7.18 0-13 5.37-13 12s5.82 12 13 12 13-5.37 13-12-5.82-12-13-12Zm0 5c4.31 0 8 3.1 8 7s-3.69 7-8 7-8-3.1-8-7 3.69-7 8-7Z"/>
  <path fill="#fff" d="M24 20a4 4 0 1 0 0 8 4 4 0 0 0 0-8Z"/>
  <path fill="#fff" fill-opacity=".72" d="M9 15h6l-3 4-3-4Zm24 0h6l-3 4-3-4ZM9 33l3-4 3 4H9Zm24 0 3-4 3 4h-6Z"/>
</svg>
